<svg width="29" height="24" viewBox="0 0 29 24" fill="none" xmlns="http://www.w3.org/2000/svg">
<path d="M13.2936 6.00045C13.2936 3.25045 15.6061 0.962955 18.3561 1.00045C19.3192 1.01157 20.2586 1.3006 21.0613 1.8328C21.864 2.365 22.496 3.11771 22.8811 4.00045H27.2936L23.2561 8.03795C22.9956 12.0937 21.2002 15.8979 18.2351 18.6773C15.27 21.4566 11.3577 23.0025 7.29364 23.0005C3.29364 23.0005 2.29364 21.5005 2.29364 21.5005C2.29364 21.5005 6.29364 20.0005 8.29364 17.0005C8.29364 17.0005 0.293644 13.0005 2.29364 2.00045C2.29364 2.00045 7.29364 7.00045 13.2936 8.00045V6.00045Z" stroke="#858584" stroke-width="2" stroke-linecap="round" stroke-linejoin="round"/>
</svg>
